<svg xmlns="http://www.w3.org/2000/svg" viewBox="0 0 88.43 88.43"><defs><style>.cls-1{fill:#fff;}</style></defs><g id="Layer_2" data-name="Layer 2"><g id="Layer_1-2" data-name="Layer 1"><rect x="2.21" y="2.21" width="84" height="84" transform="translate(-2.33 85.97) rotate(-86.89)"/><path class="cls-1" d="M45.8,12.94Q32.46,23,18.45,32.1c-1.62,1-.12,3.64,1.51,2.59q14-9.07,27.35-19.16c1.52-1.15,0-3.75-1.51-2.59Z"/><path class="cls-1" d="M19.13,32.25a102.91,102.91,0,0,0-.53,39.34,1.52,1.52,0,0,0,1.84,1A137.09,137.09,0,0,1,65,71.94a1.53,1.53,0,0,0,1.84-1C69.11,59,71.6,47.18,74.09,35.34a1.53,1.53,0,0,0-1.45-1.9c-8.73-.89-17.55-1.78-26.32-.85C42,33,37.81,34,33.46,33.82a65.61,65.61,0,0,1-12.64-2.34l.36,2.74,17.55-8.78c4.54-2.27,9.45-4.55,12.08-9.14a1.5,1.5,0,0,0-2.59-1.51c-2.5,4.36-7.61,6.36-11.89,8.51L19.67,31.63A1.51,1.51,0,0,0,20,34.37a71.76,71.76,0,0,0,13,2.42c4.35.27,8.55-.66,12.84-1.15,8.93-1,17.92-.1,26.81.8l-1.45-1.9c-2.49,11.84-5,23.68-7.29,35.55l1.84-1a141.73,141.73,0,0,0-46.09.7l1.84,1.05A99,99,0,0,1,22,33.05c.39-1.89-2.5-2.69-2.89-.8Z"/><path class="cls-1" d="M44.64,16.22A122.71,122.71,0,0,1,70.56,35.79a1.5,1.5,0,0,0,2.12-2.12,125.74,125.74,0,0,0-26.52-20c-1.68-1-3.2,1.64-1.52,2.59Z"/><path class="cls-1" d="M30.15,49.2a73.71,73.71,0,0,0,.09,19.46c.23,1.68,3,1.27,2.95-.4l0-1.47c-.07-1.93-3.07-1.94-3,0l.05,1.47,2.95-.4a70.65,70.65,0,0,1,0-18.66c.11-.8-.76-1.5-1.5-1.5a1.55,1.55,0,0,0-1.5,1.5Z"/><path class="cls-1" d="M33.27,50.11a109.43,109.43,0,0,1,18.85,1.74l-1-1.84q-1.53,8.51-2.24,17.12c-.16,1.93,2.84,1.92,3,0q.68-8.2,2.13-16.33A1.51,1.51,0,0,0,52.91,49a113.48,113.48,0,0,0-19.64-1.85,1.5,1.5,0,0,0,0,3Z"/><path class="cls-1" d="M55.34,41l-.17,3.48c-.06,1.25,0,2.52,1.19,3.27a5.16,5.16,0,0,0,3,.46l3.39-.14c1.29,0,3.1.17,3.59-1.38a7.44,7.44,0,0,0,.21-1.64l.14-1.7.14-1.61a6,6,0,0,0,0-1.84,3,3,0,0,0-2.34-2.23,10.68,10.68,0,0,0-3.43-.16,18,18,0,0,0-3.86.73A1.5,1.5,0,1,0,58,41.13a15.09,15.09,0,0,1,1.76-.44,9.13,9.13,0,0,1,1.55-.19,14.27,14.27,0,0,1,1.73,0l.36,0c.38,0-.31-.07.07,0l.29.07c.06,0,.38.16.2.06l.12.08q-.21-.16-.09-.06c.07.08,0,.05-.07-.09.11.17,0,0,0-.07s0,.17,0,.25c0,.62-.1,1.23-.15,1.84l-.16,1.87-.08.85c0,.17,0,.34,0,.51,0,.37,0-.1.06-.2l.54-.54c.06,0,.45-.06.24-.07a3.09,3.09,0,0,0-.43,0l-.87,0-1.66.07c-1,0-2.12.15-3.17.11l-.24,0c.33,0,.09,0,0,0s-.15-.09,0,0c-.2-.13,0,0,.09.1s0,.23,0,0c0,.22,0,0,0-.11s0-.5,0-.74L58.34,41a1.51,1.51,0,0,0-1.5-1.5,1.54,1.54,0,0,0-1.5,1.5Z"/></g></g></svg>